<svg width="43" height="41" viewBox="0 0 43 41" fill="none" xmlns="http://www.w3.org/2000/svg">
<path d="M3.34 2.16C4.2 2.44 6.33 2.85 7.22 2.94L7.03 3.7C6.07 3.57 3.91 3.13 3.14 2.93L3.34 2.16ZM3.12 3.99C2.99 4.67 2.81 6.15 2.71 6.8C3.67 5.96 4.77 5.57 5.97 5.57C7.5 5.57 8.52 6.49 8.52 7.67C8.52 9.45 6.93 10.66 3.22 10.35L2.98 9.54C6.14 9.92 7.68 9.01 7.68 7.64C7.68 6.85 6.93 6.28 5.91 6.28C4.6 6.28 3.52 6.77 2.82 7.62C2.67 7.79 2.58 7.95 2.52 8.11L1.77 7.93C1.97 7.02 2.22 4.92 2.28 3.88L3.12 3.99ZM12.23 3.03C12.18 3.26 12.15 3.74 12.14 4C12.13 4.62 12.14 5.54 12.21 6.36C12.38 8.03 12.86 9.14 13.58 9.14C14.09 9.14 14.56 8.11 14.82 7.11L15.45 7.82C14.84 9.51 14.24 10.09 13.56 10.09C12.61 10.09 11.71 9.15 11.43 6.56C11.34 5.7 11.32 4.48 11.32 3.9C11.32 3.67 11.32 3.24 11.26 3.01L12.23 3.03ZM17.43 3.3C18.33 4.46 19.05 6.59 19.2 8.28L18.39 8.6C18.22 6.8 17.61 4.74 16.66 3.57L17.43 3.3ZM26.95 3.35C26.95 4.07 26.95 5.03 26.95 5.66C26.95 6.92 27.08 8.31 27.08 9.11C27.08 9.92 26.52 10.4 25.44 10.4C24.34 10.4 23.52 9.94 23.52 9C23.52 8.29 24.11 7.62 25.43 7.62C27.2 7.62 28.42 8.49 29.16 9.16L28.74 9.86C27.79 8.88 26.59 8.22 25.41 8.22C24.7 8.22 24.23 8.52 24.23 8.95C24.23 9.45 24.68 9.7 25.37 9.7C26.16 9.7 26.35 9.3 26.35 8.77C26.35 8.2 26.23 6.72 26.23 5.69C26.23 4.98 26.23 3.9 26.23 3.35H26.95ZM23.82 5.3C25.62 5.44 27.45 5.31 28.82 5.15V5.88C27.54 6.03 25.61 6.13 23.82 6.03V5.3ZM23.97 2.98C25.58 3.1 27.11 3.02 28.24 2.87V3.57C27.13 3.68 25.59 3.76 23.97 3.68V2.98ZM22.26 2.57C22.2 2.74 22.11 3.05 22.08 3.23C21.88 4.16 21.6 6.1 21.6 7.22C21.6 7.71 21.63 8.14 21.69 8.63C21.85 8.17 22.09 7.54 22.27 7.14L22.68 7.47C22.43 8.15 22.07 9.19 21.97 9.67C21.94 9.81 21.91 10 21.92 10.12C21.92 10.22 21.94 10.36 21.95 10.47L21.24 10.52C21.03 9.81 20.86 8.71 20.86 7.36C20.86 5.89 21.19 4.02 21.31 3.2C21.34 2.97 21.37 2.7 21.37 2.49L22.26 2.57ZM28.19 2.15C28.37 2.51 28.64 3.14 28.78 3.54L28.28 3.71C28.13 3.28 27.9 2.68 27.71 2.3L28.19 2.15ZM29.19 1.83C29.38 2.2 29.65 2.82 29.8 3.22L29.3 3.39C29.14 2.95 28.91 2.37 28.71 1.99L29.19 1.83ZM37.19 6.68C37.19 5.83 36.51 5.24 35.48 5.24C34.33 5.24 33.34 5.57 32.76 5.74C32.45 5.83 32.15 5.94 31.91 6.04L31.66 5.12C31.94 5.1 32.27 5.03 32.58 4.97C33.28 4.81 34.41 4.49 35.57 4.49C36.99 4.49 38.04 5.28 38.04 6.71C38.04 8.88 36.1 10.09 33.51 10.49L33.05 9.73C35.48 9.42 37.19 8.47 37.19 6.68ZM32.99 2.17C34.1 2.42 36.27 2.63 37.24 2.64L37.12 3.41C36.01 3.33 34 3.13 32.87 2.93L32.99 2.17ZM5.98 14.2C5.96 14.31 5.93 14.7 5.93 14.83C5.91 15.47 5.93 17.4 5.94 18.2L5.18 17.81C5.18 17.37 5.17 15.39 5.14 14.83C5.12 14.56 5.09 14.28 5.07 14.2H5.98ZM0.67 15.59C2.03 15.57 4.53 15.48 6.07 15.48C7.29 15.48 8.52 15.48 9 15.49L8.99 16.23C8.42 16.2 7.52 16.18 6.06 16.18C4.34 16.18 2.19 16.25 0.69 16.36L0.67 15.59ZM5.92 18.49C5.92 19.83 5.3 20.5 4.38 20.5C3.54 20.5 2.74 19.91 2.74 18.82C2.74 17.83 3.55 17.09 4.5 17.09C5.67 17.09 6.26 17.95 6.26 19.11C6.26 20.46 5.6 21.96 3.27 22.65L2.6 22C4.43 21.58 5.49 20.68 5.49 19.03C5.49 18.13 5.05 17.75 4.5 17.75C3.98 17.75 3.49 18.16 3.49 18.81C3.49 19.44 3.96 19.81 4.5 19.81C5.13 19.81 5.53 19.28 5.37 18.22L5.92 18.49ZM7.36 13.99C7.59 14.33 7.91 14.83 8.11 15.2L7.54 15.45C7.33 15.05 7.05 14.57 6.8 14.23L7.36 13.99ZM8.57 13.73C8.8 14.07 9.11 14.55 9.32 14.93L8.76 15.19C8.54 14.77 8.27 14.31 8.01 13.97L8.57 13.73ZM13.125 22H10.8807V14.7273H13.2244C13.9299 14.7273 14.5336 14.8729 15.0355 15.1641C15.5374 15.4529 15.9221 15.8684 16.1896 16.4105C16.4571 16.9503 16.5909 17.5966 16.5909 18.3494C16.5909 19.107 16.456 19.7592 16.1861 20.3061C15.9162 20.8506 15.5232 21.2696 15.0071 21.5632C14.491 21.8544 13.8636 22 13.125 22ZM11.7614 21.2188H13.0682C13.6695 21.2188 14.1679 21.1027 14.5632 20.8707C14.9586 20.6387 15.2533 20.3085 15.4474 19.88C15.6416 19.4515 15.7386 18.9413 15.7386 18.3494C15.7386 17.7623 15.6428 17.2569 15.451 16.8331C15.2592 16.407 14.9728 16.0803 14.5916 15.853C14.2105 15.6233 13.7358 15.5085 13.1676 15.5085H11.7614V21.2188ZM19.5597 22.1278C19.214 22.1278 18.9003 22.0627 18.6186 21.9325C18.3369 21.8 18.1132 21.6094 17.9474 21.3608C17.7817 21.1098 17.6989 20.8068 17.6989 20.4517C17.6989 20.1392 17.7604 19.8859 17.8835 19.6918C18.0066 19.4953 18.1712 19.3414 18.3771 19.2301C18.5831 19.1188 18.8104 19.036 19.0589 18.9815C19.3099 18.9247 19.562 18.8797 19.8153 18.8466C20.1468 18.804 20.4155 18.772 20.6214 18.7507C20.8298 18.727 20.9813 18.688 21.076 18.6335C21.1731 18.5791 21.2216 18.4844 21.2216 18.3494V18.321C21.2216 17.9706 21.1257 17.6984 20.9339 17.5043C20.7446 17.3101 20.4569 17.2131 20.071 17.2131C19.6709 17.2131 19.3572 17.3007 19.13 17.4759C18.9027 17.651 18.7429 17.8381 18.6506 18.0369L17.8551 17.7528C17.9972 17.4214 18.1866 17.1634 18.4233 16.9787C18.6624 16.7917 18.9228 16.6615 19.2045 16.5881C19.4886 16.5123 19.768 16.4744 20.0426 16.4744C20.2178 16.4744 20.419 16.4957 20.6463 16.5384C20.8759 16.5786 21.0973 16.6626 21.3104 16.7905C21.5258 16.9183 21.7045 17.1113 21.8466 17.3693C21.9886 17.6274 22.0597 17.973 22.0597 18.4062V22H21.2216V21.2614H21.179C21.1222 21.3797 21.0275 21.5064 20.8949 21.6413C20.7623 21.7763 20.5859 21.8911 20.3658 21.9858C20.1456 22.0805 19.8769 22.1278 19.5597 22.1278ZM19.6875 21.375C20.0189 21.375 20.2983 21.3099 20.5256 21.1797C20.7552 21.0495 20.928 20.8814 21.044 20.6754C21.1624 20.4695 21.2216 20.2528 21.2216 20.0256V19.2585C21.1861 19.3011 21.108 19.3402 20.9872 19.3757C20.8688 19.4089 20.7315 19.4384 20.5753 19.4645C20.4214 19.4882 20.2711 19.5095 20.1243 19.5284C19.9799 19.545 19.8627 19.5592 19.7727 19.571C19.5549 19.5994 19.3513 19.6456 19.1619 19.7095C18.9749 19.7711 18.8234 19.8646 18.7074 19.9901C18.5938 20.1132 18.5369 20.2812 18.5369 20.4943C18.5369 20.7855 18.6446 21.0057 18.8601 21.1548C19.0779 21.3016 19.3537 21.375 19.6875 21.375ZM23.9338 24.0455C23.7917 24.0455 23.6651 24.0336 23.5538 24.0099C23.4425 23.9886 23.3656 23.9673 23.323 23.946L23.536 23.2074C23.7396 23.2595 23.9196 23.2784 24.0758 23.2642C24.2321 23.25 24.3706 23.1802 24.4913 23.0547C24.6144 22.9316 24.7269 22.7315 24.8287 22.4545L24.9849 22.0284L22.9679 16.5455H23.877L25.3826 20.892H25.4395L26.9451 16.5455H27.8542L25.5389 22.7955C25.4347 23.0772 25.3057 23.3104 25.1518 23.495C24.9979 23.6821 24.8192 23.8205 24.6156 23.9105C24.4144 24.0005 24.1871 24.0455 23.9338 24.0455Z" fill="black"/>
<path d="M13 25L14.3471 29.1459H18.7063L15.1796 31.7082L16.5267 35.8541L13 33.2918L9.47329 35.8541L10.8204 31.7082L7.29366 29.1459H11.6529L13 25Z" fill="#6DEDC7"/>
<path d="M33.5 24L35.4084 29.8734L41.584 29.8734L36.5878 33.5033L38.4962 39.3766L33.5 35.7467L28.5038 39.3766L30.4122 33.5033L25.416 29.8734L31.5916 29.8734L33.5 24Z" fill="#23E7C3"/>
</svg>
